<svg xmlns="http://www.w3.org/2000/svg" xmlns:xlink="http://www.w3.org/1999/xlink" width="179.391" height="128" viewBox="0 0 179.391 128">
  <defs>
    <linearGradient id="linear-gradient" x1="0.311" y1="0.108" x2="1.092" y2="0.819" gradientUnits="objectBoundingBox">
      <stop offset="0" stop-color="#f8aca9"/>
      <stop offset="1" stop-color="#feeeaf"/>
    </linearGradient>
  </defs>
  <g id="file" transform="translate(-50.829 -50.361)">
    <path id="Path_1" data-name="Path 1" d="M176.063,95.273a9.439,9.439,0,0,1,0,13.349L109.089,175.6a9.439,9.439,0,0,1-13.349,0L53.593,133.449a9.439,9.439,0,0,1,0-13.349l66.974-66.974a9.439,9.439,0,0,1,13.349,0Z" transform="translate(0 0.001)" fill="url(#linear-gradient)"/>
    <path id="Path_2" data-name="Path 2" d="M160.771,108.622a9.439,9.439,0,0,0,0-13.349L129.778,64.281l11.157-11.156a9.439,9.439,0,0,1,13.349,0l42.147,42.147a9.439,9.439,0,0,1,0,13.349l-66.974,66.974a9.439,9.439,0,0,1-13.35,0l-11.156-11.156Z" transform="translate(31.024 0)" fill="url(#linear-gradient)"/>
  </g>
</svg>
